RBDS017runT45_grf
version=1
nRows=21
nColumns=19
inDegrees=no
endheader
time	ground_force_r_vx	ground_force_r_vy	ground_force_r_vz	ground_force_r_px	ground_force_r_py	ground_force_r_pz	ground_force_r_mx	ground_force_r_my	ground_force_r_mz	ground_force_l_vx	ground_force_l_vy	ground_force_l_vz	ground_force_l_px	ground_force_l_py	ground_force_l_pz	ground_force_l_mx	ground_force_l_my	ground_force_l_mz
     22.49800000	    -83.17894782	   2253.34918050	    -33.75988091	      2.22844650	      0.00000000	      1.09815673	     -0.00000000	     20.20355992	      0.00000000	      0.00000000	      0.00000000	      0.00000000	      0.00000000	      0.00000000	      0.00000000	      0.00000000	      0.00000000	      0.00000000
     22.49900000	    -73.94917417	   2242.67527203	    -34.99017816	      2.22456244	      0.00000000	      1.09848245	     -0.00000000	     19.70348140	      0.00000000	      0.00000000	      0.00000000	      0.00000000	      0.00000000	      0.00000000	      0.00000000	      0.00000000	      0.00000000	      0.00000000
     22.50000000	    -64.71940052	   2232.00136355	    -36.22047540	      2.22067837	      0.00000000	      1.09880816	     -0.00000000	     19.20340288	      0.00000000	      0.00000000	      0.00000000	      0.00000000	      0.00000000	      0.00000000	      0.00000000	      0.00000000	      0.00000000	      0.00000000
     22.50100000	    -55.22645484	   2219.76723172	    -37.33575661	      2.21671118	      0.00000000	      1.09912081	     -0.00000000	     18.67655180	      0.00000000	      0.00000000	      0.00000000	      0.00000000	      0.00000000	      0.00000000	      0.00000000	      0.00000000	      0.00000000	      0.00000000
     22.50200000	    -45.73350915	   2207.53309988	    -38.45103782	      2.21274399	      0.00000000	      1.09943345	     -0.00000000	     18.14970071	      0.00000000	      0.00000000	      0.00000000	      0.00000000	      0.00000000	      0.00000000	      0.00000000	      0.00000000	      0.00000000	      0.00000000
     22.50300000	    -36.24056347	   2195.29896805	    -39.56631903	      2.20877680	      0.00000000	      1.09974609	     -0.00000000	     17.62284962	      0.00000000	      0.00000000	      0.00000000	      0.00000000	      0.00000000	      0.00000000	      0.00000000	      0.00000000	      0.00000000	      0.00000000
     22.50400000	    -26.65960981	   2182.08718438	    -40.57899609	      2.20475763	      0.00000000	      1.10004460	     -0.00000000	     17.08515687	      0.00000000	      0.00000000	      0.00000000	      0.00000000	      0.00000000	      0.00000000	      0.00000000	      0.00000000	      0.00000000	      0.00000000
     22.50500000	    -17.03465217	   2168.38657478	    -41.54037108	      2.20071246	      0.00000000	      1.10033605	     -0.00000000	     16.54204330	      0.00000000	      0.00000000	      0.00000000	      0.00000000	      0.00000000	      0.00000000	      0.00000000	      0.00000000	      0.00000000	      0.00000000
     22.50600000	     -7.40969454	   2154.68596519	    -42.50174607	      2.19666729	      0.00000000	      1.10062749	     -0.00000000	     15.99892972	      0.00000000	      0.00000000	      0.00000000	      0.00000000	      0.00000000	      0.00000000	      0.00000000	      0.00000000	      0.00000000	      0.00000000
     22.50700000	      2.21542864	   2140.52094709	    -43.40042601	      2.19259825	      0.00000000	      1.10090968	     -0.00000000	     15.45360118	      0.00000000	      0.00000000	      0.00000000	      0.00000000	      0.00000000	      0.00000000	      0.00000000	      0.00000000	      0.00000000	      0.00000000
     22.50800000	     11.84088288	   2125.42711196	    -44.17371587	      2.18848147	      0.00000000	      1.10117335	     -0.00000000	     14.90384269	      0.00000000	      0.00000000	      0.00000000	      0.00000000	      0.00000000	      0.00000000	      0.00000000	      0.00000000	      0.00000000	      0.00000000
     22.50900000	     21.46633712	   2110.33327682	    -44.94700573	      2.18436468	      0.00000000	      1.10143703	     -0.00000000	     14.35408421	      0.00000000	      0.00000000	      0.00000000	      0.00000000	      0.00000000	      0.00000000	      0.00000000	      0.00000000	      0.00000000	      0.00000000
     22.51000000	     31.09179136	   2095.23944169	    -45.72029558	      2.18024789	      0.00000000	      1.10170070	     -0.00000000	     13.80432572	      0.00000000	      0.00000000	      0.00000000	      0.00000000	      0.00000000	      0.00000000	      0.00000000	      0.00000000	      0.00000000	      0.00000000
     22.51100000	     40.58763860	   2078.80925770	    -46.27730169	      2.17606702	      0.00000000	      1.10193170	     -0.00000000	     13.25645892	      0.00000000	      0.00000000	      0.00000000	      0.00000000	      0.00000000	      0.00000000	      0.00000000	      0.00000000	      0.00000000	      0.00000000
     22.51200000	     50.08348584	   2062.37907371	    -46.83430779	      2.17188615	      0.00000000	      1.10216269	     -0.00000000	     12.70859212	      0.00000000	      0.00000000	      0.00000000	      0.00000000	      0.00000000	      0.00000000	      0.00000000	      0.00000000	      0.00000000	      0.00000000
     22.51300000	     59.57933308	   2045.94888972	    -47.39131389	      2.16770528	      0.00000000	      1.10239369	     -0.00000000	     12.16072531	      0.00000000	      0.00000000	      0.00000000	      0.00000000	      0.00000000	      0.00000000	      0.00000000	      0.00000000	      0.00000000	      0.00000000
     22.51400000	     68.90410211	   2028.65793458	    -47.79000646	      2.16348750	      0.00000000	      1.10260080	     -0.00000000	     11.61901460	      0.00000000	      0.00000000	      0.00000000	      0.00000000	      0.00000000	      0.00000000	      0.00000000	      0.00000000	      0.00000000	      0.00000000
     22.51500000	     78.14333203	   2010.93659388	    -48.10954226	      2.15925126	      0.00000000	      1.10279596	     -0.00000000	     11.08038193	      0.00000000	      0.00000000	      0.00000000	      0.00000000	      0.00000000	      0.00000000	      0.00000000	      0.00000000	      0.00000000	      0.00000000
     22.51600000	     87.38256195	   1993.21525317	    -48.42907806	      2.15501502	      0.00000000	      1.10299112	     -0.00000000	     10.54174927	      0.00000000	      0.00000000	      0.00000000	      0.00000000	      0.00000000	      0.00000000	      0.00000000	      0.00000000	      0.00000000	      0.00000000
     22.51700000	     96.49549903	   1975.07638526	    -48.66498542	      2.15076365	      0.00000000	      1.10317388	     -0.00000000	     10.00822971	      0.00000000	      0.00000000	      0.00000000	      0.00000000	      0.00000000	      0.00000000	      0.00000000	      0.00000000	      0.00000000	      0.00000000
     22.51800000	    105.35585042	   1956.10246294	    -48.73363589	      2.14648198	      0.00000000	      1.10333181	     -0.00000000	      9.48493638	      0.00000000	      0.00000000	      0.00000000	      0.00000000	      0.00000000	      0.00000000	      0.00000000	      0.00000000	      0.00000000	      0.00000000
